<mxfile host="app.diagrams.net" modified="2024-04-07T20:25:57.592Z" agent="Mozilla/5.0 (Macintosh; Intel Mac OS X 10_15_7) AppleWebKit/537.36 (KHTML, like Gecko) Chrome/123.0.0.0 Safari/537.36" version="24.2.1" etag="RSt8Tr-1E4BvzLGN4vHE" type="github">
  <diagram name="Page-1" id="h3SauDaUFdy343OmUfgJ">
    <mxGraphModel>
      <root>
        <mxCell id="0" />
        <mxCell id="1" parent="0" />
      </root>
    </mxGraphModel>
  </diagram>
</mxfile>
